<?xml version="1.0" encoding="iso-8859-1"?>
<!-- Generator: Adobe Illustrator 24.2.3, SVG Export Plug-In . SVG Version: 6.00 Build 0)  -->
<svg version="1.1" id="Layer_1" xmlns="http://www.w3.org/2000/svg" xmlns:xlink="http://www.w3.org/1999/xlink" x="0px" y="0px"
	 viewBox="0 0 48 48" style="enable-background:new 0 0 48 48;" xml:space="preserve">
<linearGradient id="SVGID_1_" gradientUnits="userSpaceOnUse" x1="21.1746" y1="10.027" x2="25.8721" y2="33.2583">
	<stop  offset="5.967124e-07" style="stop-color:#00B3BA"/>
	<stop  offset="0.998" style="stop-color:#00979C"/>
</linearGradient>
<path style="fill:url(#SVGID_1_);" d="M36,36c-5.018,0-9.425-3.859-12-7.714C21.425,32.141,17.018,36,12,36C5.383,36,0,30.617,0,24
	s5.383-12,12-12c5.935,0,9.884,4.448,12,7.755C26.116,16.448,30.065,12,36,12c6.617,0,12,5.383,12,12S42.617,36,36,36z
	 M26.181,24.037C27.828,27.614,32,32,36,32c4.411,0,8-3.589,8-8s-3.589-8-8-8C30.584,16,27.199,21.954,26.181,24.037z M12,16
	c-4.411,0-8,3.589-8,8s3.589,8,8,8c4.017,0,8.206-4.422,9.823-7.963C20.837,22.018,17.445,16,12,16z M16,24.5v-1
	c0-0.276-0.224-0.5-0.5-0.5h-7C8.224,23,8,23.224,8,23.5v1C8,24.776,8.224,25,8.5,25h7C15.776,25,16,24.776,16,24.5z M39.5,23H37
	v-2.5c0-0.276-0.224-0.5-0.5-0.5h-1c-0.276,0-0.5,0.224-0.5,0.5V23h-2.5c-0.276,0-0.5,0.224-0.5,0.5v1c0,0.276,0.224,0.5,0.5,0.5H35
	v2.5c0,0.276,0.224,0.5,0.5,0.5h1c0.276,0,0.5-0.224,0.5-0.5V25h2.5c0.276,0,0.5-0.224,0.5-0.5v-1C40,23.224,39.776,23,39.5,23z"/>
</svg>