<?xml version="1.0" encoding="iso-8859-1"?>
<!-- Generator: Adobe Illustrator 25.1.0, SVG Export Plug-In . SVG Version: 6.00 Build 0)  -->
<svg version="1.1" xmlns="http://www.w3.org/2000/svg" xmlns:xlink="http://www.w3.org/1999/xlink" x="0px" y="0px"
	 viewBox="0 0 48 48" style="enable-background:new 0 0 48 48;" xml:space="preserve">
<g id="&#x421;&#x43B;&#x43E;&#x439;_1">
</g>
<g id="&#x421;&#x43B;&#x43E;&#x439;_2">
	<linearGradient id="SVGID_1_" gradientUnits="userSpaceOnUse" x1="23.2489" y1="12.7622" x2="22.8444" y2="7.5038">
		<stop  offset="2.600930e-07" style="stop-color:#E8E8E8"/>
		<stop  offset="0.4637" style="stop-color:#EDEDED"/>
		<stop  offset="1" style="stop-color:#FAFAFB"/>
	</linearGradient>
	<path style="fill-rule:evenodd;clip-rule:evenodd;fill:url(#SVGID_1_);" d="M11.553,11.139c1.232,1.001,1.694,0.925,4.008,0.77
		l21.812-1.31c0.463,0,0.078-0.461-0.076-0.538l-3.622-2.619c-0.694-0.539-1.619-1.156-3.391-1.002l-21.12,1.54
		c-0.77,0.076-0.924,0.461-0.617,0.77L11.553,11.139z"/>
	<linearGradient id="SVGID_2_" gradientUnits="userSpaceOnUse" x1="27.4778" y1="43.4919" x2="25.9609" y2="14.1661">
		<stop  offset="2.600930e-07" style="stop-color:#E8E8E8"/>
		<stop  offset="0.4637" style="stop-color:#EDEDED"/>
		<stop  offset="1" style="stop-color:#FAFAFB"/>
	</linearGradient>
	<path style="fill-rule:evenodd;clip-rule:evenodd;fill:url(#SVGID_2_);" d="M12.862,16.222v22.95c0,1.233,0.616,1.695,2.004,1.619
		l23.971-1.387c1.388-0.076,1.543-0.925,1.543-1.927V14.681c0-1-0.385-1.54-1.234-1.463l-25.05,1.463
		C13.171,14.758,12.862,15.221,12.862,16.222L12.862,16.222z"/>
	<g>
		<path style="opacity:0.05;fill:none;stroke:#1D1D1B;stroke-width:2;" d="M11.553,11.139c1.232,1.001,1.694,0.925,4.008,0.77
			l21.812-1.31c0.463,0,0.078-0.461-0.076-0.538l-3.622-2.619c-0.694-0.539-1.619-1.156-3.391-1.002l-21.12,1.54
			c-0.77,0.076-0.924,0.461-0.617,0.77L11.553,11.139z"/>
		<path style="opacity:0.07;fill:none;stroke:#000000;" d="M11.553,11.139c1.232,1.001,1.694,0.925,4.008,0.77l21.812-1.31
			c0.463,0,0.078-0.461-0.076-0.538l-3.622-2.619c-0.694-0.539-1.619-1.156-3.391-1.002l-21.12,1.54
			c-0.77,0.076-0.924,0.461-0.617,0.77L11.553,11.139z"/>
	</g>
	<g>
		<path style="opacity:0.05;fill:none;stroke:#1D1D1B;stroke-width:2;" d="M12.862,16.222v22.95c0,1.233,0.616,1.695,2.004,1.619
			l23.971-1.387c1.388-0.076,1.543-0.925,1.543-1.927V14.681c0-1-0.385-1.54-1.234-1.463l-25.05,1.463
			C13.171,14.758,12.862,15.221,12.862,16.222L12.862,16.222z"/>
		<path style="opacity:0.07;fill:none;stroke:#000000;" d="M12.862,16.222v22.95c0,1.233,0.616,1.695,2.004,1.619l23.971-1.387
			c1.388-0.076,1.543-0.925,1.543-1.927V14.681c0-1-0.385-1.54-1.234-1.463l-25.05,1.463C13.171,14.758,12.862,15.221,12.862,16.222
			L12.862,16.222z"/>
	</g>
	<linearGradient id="SVGID_3_" gradientUnits="userSpaceOnUse" x1="21.6502" y1="4.7597" x2="26.6053" y2="42.2765">
		<stop  offset="0" style="stop-color:#636363"/>
		<stop  offset="1" style="stop-color:#444444"/>
	</linearGradient>
	<path style="fill-rule:evenodd;clip-rule:evenodd;fill:url(#SVGID_3_);" d="M11.553,11.139c1.232,1.001,1.694,0.925,4.008,0.77
		l21.812-1.31c0.463,0,0.078-0.461-0.076-0.538l-3.622-2.619c-0.694-0.539-1.619-1.156-3.391-1.002l-21.12,1.54
		c-0.77,0.076-0.924,0.461-0.617,0.77L11.553,11.139z M12.862,16.222v22.95c0,1.233,0.616,1.695,2.004,1.619l23.971-1.387
		c1.388-0.076,1.543-0.925,1.543-1.927V14.681c0-1-0.385-1.54-1.234-1.463l-25.05,1.463C13.171,14.758,12.862,15.221,12.862,16.222
		L12.862,16.222z M36.526,17.453c0.154,0.694,0,1.387-0.695,1.465l-1.155,0.23v16.943c-1.003,0.539-1.928,0.847-2.698,0.847
		c-1.234,0-1.543-0.385-2.467-1.54l-7.555-11.86v11.475l2.391,0.539c0,0,0,1.386-1.929,1.386l-5.317,0.308
		c-0.154-0.308,0-1.078,0.539-1.232l1.388-0.385V20.458l-1.927-0.154c-0.155-0.694,0.23-1.694,1.31-1.772l5.704-0.385l7.862,12.015
		V19.533l-2.005-0.23c-0.154-0.848,0.462-1.464,1.233-1.54L36.526,17.453z M7.389,5.902l21.968-1.618
		c2.698-0.231,3.392-0.076,5.087,1.155l7.013,4.929C42.614,11.216,43,11.446,43,12.37v27.032c0,1.694-0.617,2.696-2.775,2.849
		l-25.512,1.541c-1.62,0.077-2.391-0.154-3.239-1.232l-5.164-6.7C5.385,34.627,5,33.704,5,32.625V8.596
		C5,7.211,5.617,6.055,7.389,5.902z"/>
</g>
</svg>