<?xml version="1.0" encoding="iso-8859-1"?>
<!-- Generator: Adobe Illustrator 24.1.0, SVG Export Plug-In . SVG Version: 6.00 Build 0)  -->
<svg version="1.1" id="Layer_1" xmlns="http://www.w3.org/2000/svg" xmlns:xlink="http://www.w3.org/1999/xlink" x="0px" y="0px"
	 viewBox="0 0 48 48" style="enable-background:new 0 0 48 48;" xml:space="preserve">
<linearGradient id="SVGID_1_" gradientUnits="userSpaceOnUse" x1="24.5" y1="7.0324" x2="24.5" y2="22.8515">
	<stop  offset="0" style="stop-color:#0571BF"/>
	<stop  offset="1" style="stop-color:#0268BA"/>
</linearGradient>
<path style="fill:url(#SVGID_1_);" d="M24.5,7C16.492,7,10,13.492,10,21.5S16.492,36,24.5,36S39,29.508,39,21.5S32.508,7,24.5,7
	L24.5,7z"/>
<linearGradient id="SVGID_2_" gradientUnits="userSpaceOnUse" x1="14.228" y1="14.2189" x2="14.228" y2="32.761">
	<stop  offset="0" style="stop-color:#1684DA"/>
	<stop  offset="1" style="stop-color:#107CD4"/>
</linearGradient>
<path style="fill:url(#SVGID_2_);" d="M16.155,14.972c-1.32-0.505-2.753-0.781-4.25-0.781C5.33,14.191,0,19.521,0,26.096
	c0,2.476,0.757,4.774,2.05,6.678c0.061-0.026,16.445-6.889,26.406-10.888C22.952,18.568,17.903,15.641,16.155,14.972z"/>
<linearGradient id="SVGID_3_" gradientUnits="userSpaceOnUse" x1="38.228" y1="18.746" x2="38.228" y2="34.097">
	<stop  offset="0" style="stop-color:#138CDD"/>
	<stop  offset="1" style="stop-color:#0C7DD4"/>
</linearGradient>
<path style="fill:url(#SVGID_3_);" d="M48,28.373c0-5.317-4.31-9.627-9.627-9.627c-0.997,0-1.958,0.152-2.863,0.433
	c-0.996,0.31-3.652,1.342-7.054,2.708c8.377,5.05,17.79,10.996,18.252,11.288C47.525,31.76,48,30.123,48,28.373z"/>
<linearGradient id="SVGID_4_" gradientUnits="userSpaceOnUse" x1="17.1298" y1="24.0832" x2="31.1452" y2="41.3328">
	<stop  offset="0" style="stop-color:#27A7EA"/>
	<stop  offset="1" style="stop-color:#1C94E3"/>
</linearGradient>
<path style="fill:url(#SVGID_4_);" d="M46.709,33.175c-0.463-0.292-9.875-6.238-18.252-11.288
	C18.495,25.885,2.111,32.748,2.05,32.774C2.467,33.388,5.627,38,11.904,38c5.03,0,16.176,0,26.354,0
	C43.669,38,46.148,34.146,46.709,33.175z"/>
</svg>