<?xml version="1.0" encoding="iso-8859-1"?>
<!-- Generator: Adobe Illustrator 26.1.0, SVG Export Plug-In . SVG Version: 6.00 Build 0)  -->
<svg version="1.1" xmlns="http://www.w3.org/2000/svg" xmlns:xlink="http://www.w3.org/1999/xlink" x="0px" y="0px"
	 viewBox="0 0 48 48" style="enable-background:new 0 0 48 48;" xml:space="preserve">
<g id="&#x421;&#x43B;&#x43E;&#x439;_1">
</g>
<g id="&#x421;&#x43B;&#x43E;&#x439;_2">
	<linearGradient id="SVGID_1_" gradientUnits="userSpaceOnUse" x1="23.1001" y1="6.086" x2="24.3373" y2="30.9023">
		<stop  offset="0" style="stop-color:#00C1E0"/>
		<stop  offset="1" style="stop-color:#009BB8"/>
	</linearGradient>
	<path style="fill:url(#SVGID_1_);" d="M19.847,41.956c-5.629-0.002-11.259,0.024-16.888-0.013c-2.855-0.019-3.374-0.7-2.731-3.525
		c2.178-9.58,4.427-19.143,6.557-28.734C7.356,7.112,8.588,5.975,11.312,6C22.57,6.106,33.829,6.034,45.088,6.046
		c2.824,0.003,3.298,0.614,2.664,3.511c-2.058,9.406-4.129,18.809-6.236,28.203c-0.789,3.516-1.697,4.187-5.353,4.195
		C30.724,41.966,25.285,41.958,19.847,41.956z"/>
	
		<linearGradient id="SVGID_00000106856330346300268850000000752472005962729128_" gradientUnits="userSpaceOnUse" x1="-0.0181" y1="36.9815" x2="42.7896" y2="36.9815">
		<stop  offset="0" style="stop-color:#BBD0D2"/>
		<stop  offset="1" style="stop-color:#9DB3B7"/>
	</linearGradient>
	<path style="fill:url(#SVGID_00000106856330346300268850000000752472005962729128_);" d="M1.701,32
		c-0.492,2.139-0.986,4.278-1.473,6.418c-0.643,2.825-0.124,3.506,2.731,3.525c5.629,0.037,11.259,0.011,16.888,0.013
		c5.438,0.002,10.877,0.01,16.316-0.001c3.656-0.008,4.564-0.679,5.353-4.195c0.43-1.919,0.846-3.841,1.274-5.76H1.701z"/>
	<polygon style="fill:#516B6F;" points="38,38 11,38 11.525,36 38.525,36 	"/>
	<g>
		<path style="opacity:0.05;fill:none;stroke:#1D1D1B;stroke-width:2;" d="M32.224,40h-2.935c-0.653,0-1.131-0.616-0.969-1.249
			l1.026-4C29.46,34.309,29.859,34,30.315,34h2.935c0.653,0,1.131,0.616,0.969,1.249l-1.026,4C33.079,39.691,32.681,40,32.224,40z"
			/>
		<path style="opacity:0.07;fill:none;stroke:#000000;" d="M32.224,40h-2.935c-0.653,0-1.131-0.616-0.969-1.249l1.026-4
			C29.46,34.309,29.859,34,30.315,34h2.935c0.653,0,1.131,0.616,0.969,1.249l-1.026,4C33.079,39.691,32.681,40,32.224,40z"/>
	</g>
	
		<linearGradient id="SVGID_00000155859792553301973560000012574403949306644918_" gradientUnits="userSpaceOnUse" x1="31.0801" y1="34.0072" x2="31.434" y2="39.5943">
		<stop  offset="0" style="stop-color:#D5E4E6"/>
		<stop  offset="1" style="stop-color:#879A9E"/>
	</linearGradient>
	<path style="fill:url(#SVGID_00000155859792553301973560000012574403949306644918_);" d="M32.224,40h-2.935
		c-0.653,0-1.131-0.616-0.969-1.249l1.026-4C29.46,34.309,29.859,34,30.315,34h2.935c0.653,0,1.131,0.616,0.969,1.249l-1.026,4
		C33.079,39.691,32.681,40,32.224,40z"/>
	<g>
		<g style="opacity:0.05;">
			<path style="fill:none;stroke:#1D1D1B;stroke-width:2;" d="M24.292,19.192c-0.456-0.515-0.835-0.95-1.148-1.299
				c-1.822-2.046-3.492-3.952-5.297-5.902c-0.826-0.892-1.09-1.758-0.097-2.638c0.98-0.87,1.944-0.793,2.843,0.208
				c2.505,2.788,5.007,5.578,7.553,8.328c0.951,1.027,0.729,1.725-0.318,2.486c-4.019,2.921-8.015,5.875-12.007,8.833
				c-0.897,0.665-1.753,0.832-2.478-0.151c-0.799-1.084-0.06-1.729,0.769-2.335c2.966-2.17,5.927-4.348,8.875-6.544
				C23.398,19.873,23.946,19.45,24.292,19.192z M24.962,29c-0.844,0-1.312-0.75-1.312-1.5c0-0.75,0.469-1.5,1.312-1.5
				c3.168,0,3.534,0,6.075,0c0.844,0,1.312,0.75,1.312,1.5c0,0.75-0.469,1.5-1.312,1.5C29.443,29,27.4,29,24.962,29z"/>
		</g>
		<g style="opacity:0.07;">
			<path style="fill:none;stroke:#000000;" d="M24.292,19.192c-0.456-0.515-0.835-0.95-1.148-1.299
				c-1.822-2.046-3.492-3.952-5.297-5.902c-0.826-0.892-1.09-1.758-0.097-2.638c0.98-0.87,1.944-0.793,2.843,0.208
				c2.505,2.788,5.007,5.578,7.553,8.328c0.951,1.027,0.729,1.725-0.318,2.486c-4.019,2.921-8.015,5.875-12.007,8.833
				c-0.897,0.665-1.753,0.832-2.478-0.151c-0.799-1.084-0.06-1.729,0.769-2.335c2.966-2.17,5.927-4.348,8.875-6.544
				C23.398,19.873,23.946,19.45,24.292,19.192z M24.962,29c-0.844,0-1.312-0.75-1.312-1.5c0-0.75,0.469-1.5,1.312-1.5
				c3.168,0,3.534,0,6.075,0c0.844,0,1.312,0.75,1.312,1.5c0,0.75-0.469,1.5-1.312,1.5C29.443,29,27.4,29,24.962,29z"/>
		</g>
	</g>
	<path style="fill:#FAFAFA;" d="M24.292,19.192c-0.456-0.515-0.835-0.95-1.148-1.299c-1.822-2.046-3.492-3.952-5.297-5.902
		c-0.826-0.892-1.09-1.758-0.097-2.638c0.98-0.87,1.944-0.793,2.843,0.208c2.505,2.788,5.007,5.578,7.553,8.328
		c0.951,1.027,0.729,1.725-0.318,2.486c-4.019,2.921-8.015,5.875-12.007,8.833c-0.897,0.665-1.753,0.832-2.478-0.151
		c-0.799-1.084-0.06-1.729,0.769-2.335c2.966-2.17,5.927-4.348,8.875-6.544C23.398,19.873,23.946,19.45,24.292,19.192z M24.962,29
		c-0.844,0-1.312-0.75-1.312-1.5c0-0.75,0.469-1.5,1.312-1.5c3.168,0,3.534,0,6.075,0c0.844,0,1.312,0.75,1.312,1.5
		c0,0.75-0.469,1.5-1.312,1.5C29.443,29,27.4,29,24.962,29z"/>
</g>
</svg>